<?xml version="1.0" encoding="utf-8"?>
<!-- Generator: Adobe Illustrator 28.2.0, SVG Export Plug-In . SVG Version: 6.00 Build 0)  -->
<svg version="1.1" id="Layer_1" xmlns="http://www.w3.org/2000/svg" xmlns:xlink="http://www.w3.org/1999/xlink" x="0px" y="0px"
	 viewBox="0 0 1920 1080" style="enable-background:new 0 0 1920 1080;" xml:space="preserve">
<style type="text/css">
	.st0{fill:#880015;}
</style>
<g>
	<path class="st0" d="M291.95,538.37l0.27,14.68h0.21c3.63,61.63,32.78,117.17,76.96,155.85c-5.41-2.08-10.73-4.28-15.96-6.6
		c-37.44-16.64-71.05-39.61-99.93-68.28c-43.44-43.12-63.2-86.53-67.48-96.84c1.52-181.05,149.26-327.87,330.67-327.87
		c38.84,0,83.65,12.48,136.06,37.98c-39.97,4.4-97.73,13.94-155.05,34.62C361.87,330.93,290.73,419.6,291.95,538.37z"/>
	<path class="st0" d="M1242.59,382.87c-25.35,16.14-54.05,36.04-86.44,60.59c-33.85,25.61-69.06,54.32-104.69,85.31l-0.12,0.12
		l-0.12,0.09l-58.95,53.52l-0.12,0.06l-1.55,1.46l-0.59,0.53l-0.06,0.06c-5.53,5.2-19.37,18.07-39.82,36.16
		c-28.23,24.9-72.36,62.55-122.28,100.38C694.94,821.79,593.17,870.7,516.68,870.7c-158.65,0-291.56-112.29-323.42-261.58
		c10.16,14.14,22.82,29.51,38.24,44.96c49.36,49.39,137.94,108.64,279.53,110.51c1.87,0.03,3.74,0.06,5.65,0.06
		c0.86,0,1.66,0,2.5-0.03c153.51-0.71,304.16-108.22,449.85-212.22c71.32-50.9,145.07-103.53,217.51-142.36
		C1205.77,399.75,1224.43,390.68,1242.59,382.87z"/>
	<path class="st0" d="M1725.66,466.16c-9.39-13.19-20.86-27.31-34.71-41.45c-48.88-49.89-138.03-109.35-285-109.35h-2.67
		c-0.92,0-1.87,0-2.76,0.03c-153.36,1.99-303.51,109.17-448.75,212.82c-71.55,51.08-145.57,103.91-218.2,142.69
		c-20.68,11.02-40.68,20.62-60.08,28.76c26.03-16.4,55.69-36.88,89.35-62.31c33.93-25.67,69.47-54.65,105.64-86.08l0.12-0.12
		l0.12-0.09l60.2-54.62l0.12-0.09l0.09-0.12l0.48-0.45c6.75-6.3,20.92-19.46,40.23-36.52c28.23-24.93,72.36-62.58,122.28-100.38
		c132.91-100.64,234.72-149.58,311.17-149.58C1560.24,209.3,1692.03,319.25,1725.66,466.16z"/>
	<path class="st0" d="M1733.98,542.56c-1.37,181.2-149.2,328.14-330.7,328.14c-39.64,0-85.55-12.99-139.45-39.58
		c39.58-4.28,96.84-13.61,154.58-33.99c138.32-48.82,210.77-137.76,209.55-257.18c0-68.97-31.26-130.75-80.35-171.99
		c7.13,2.56,14.11,5.32,20.95,8.29c37.98,16.46,71.7,39.43,100.2,68.26C1711.99,488.24,1730.24,532.63,1733.98,542.56z"/>
</g>
</svg>
